<?xml version="1.0" encoding="utf-8"?>
<!-- Generator: Adobe Illustrator 14.0.0, SVG Export Plug-In . SVG Version: 6.00 Build 43363)  -->
<!DOCTYPE svg PUBLIC "-//W3C//DTD SVG 1.1//EN" "http://www.w3.org/Graphics/SVG/1.1/DTD/svg11.dtd">
<svg version="1.1" id="Layer_1" xmlns="http://www.w3.org/2000/svg" xmlns:xlink="http://www.w3.org/1999/xlink" x="0px" y="0px"
	 width="3192px" height="928px" viewBox="0 0 3192 928" enable-background="new 0 0 3192 928" xml:space="preserve">
<path id="right" fill="none" stroke="#404042" stroke-width="16" d="M2838.401,42.039H1306.25v853.334h1532.151
	c183.687,0,332.599-148.911,332.599-332.6V374.638C3171,190.951,3022.088,42.039,2838.401,42.039z"/>
<path id="left" fill="none" stroke="#404042" stroke-width="16" d="M1306.269,42.039H372.599C188.911,42.039,40,190.951,40,374.638
	v188.135c0,183.688,148.911,332.6,332.599,332.6h933.669V42.039z"/>
<path fill="#326335" d="M502.441,411.108h-31.172c0.946-51.785,0.96-92.727-33.219-113.411
	c-17.495-10.588-44.183-15.479-71.269-15.365c-27.084-0.114-53.772,4.777-71.268,15.365c-34.18,20.684-34.164,61.626-33.218,113.411
	h-31.236c-5.948,0-10.768,4.82-10.768,10.768v199.798c0,5.947,4.82,10.769,10.768,10.769h271.382
	c5.947,0,10.768-4.821,10.768-10.769V421.876C513.209,415.928,508.388,411.108,502.441,411.108z M324.637,326.821
	c9.369-3.609,22.996-5.341,37.44-5.441v0.156c1.571-0.064,3.14-0.102,4.704-0.128c1.566,0.026,3.134,0.064,4.705,0.128v-0.156
	c14.445,0.101,28.071,1.832,37.442,5.441c27.393,10.552,26.918,47.292,26.617,84.287H298.02
	C297.717,374.113,297.243,337.373,324.637,326.821z"/>
<g>
	<path fill="#404042" d="M1433.338,354.42h26.928v92.718h0.613c4.283-7.65,11.016-14.688,19.277-19.278
		c7.957-4.59,17.441-7.344,27.541-7.344c19.889,0,51.713,12.24,51.713,63.036v88.128h-26.928v-85.068
		c0-23.868-8.875-43.758-34.271-43.758c-17.443,0-30.906,12.24-36.109,26.622c-1.529,3.978-1.836,7.956-1.836,12.852v89.352h-26.928
		V354.42z"/>
	<path fill="#404042" d="M1634.379,388.08v35.496h38.557v20.502h-38.557v79.866c0,18.36,5.201,28.764,20.195,28.764
		c7.344,0,11.629-0.612,15.607-1.836l1.223,20.502c-5.201,1.836-13.463,3.672-23.867,3.672c-12.547,0-22.645-4.284-29.07-11.322
		c-7.344-8.262-10.404-21.42-10.404-38.862v-80.784h-22.949v-20.502h22.949v-27.54L1634.379,388.08z"/>
	<path fill="#404042" d="M1735.664,388.08v35.496h38.555v20.502h-38.555v79.866c0,18.36,5.201,28.764,20.195,28.764
		c7.344,0,11.627-0.612,15.605-1.836l1.225,20.502c-5.203,1.836-13.465,3.672-23.869,3.672c-12.545,0-22.643-4.284-29.068-11.322
		c-7.346-8.262-10.404-21.42-10.404-38.862v-80.784h-22.951v-20.502h22.951v-27.54L1735.664,388.08z"/>
	<path fill="#404042" d="M1804.512,471.924c0-18.972-0.613-34.272-1.225-48.348h23.869l1.529,25.398h0.611
		c10.711-18.054,28.459-28.458,52.633-28.458c36.107,0,63.035,30.294,63.035,74.97c0,53.244-32.742,79.56-67.625,79.56
		c-19.584,0-36.721-8.568-45.594-23.256h-0.613v80.478h-26.621V471.924z M1831.133,511.398c0,3.978,0.307,7.65,1.225,11.016
		c4.896,18.666,21.113,31.518,40.393,31.518c28.457,0,44.98-23.256,44.98-57.222c0-29.376-15.605-54.774-44.063-54.774
		c-18.361,0-35.803,12.852-40.699,33.048c-0.918,3.366-1.836,7.344-1.836,10.71V511.398z"/>
	<path fill="#326335" d="M1974.949,544.446c8.262,4.896,22.338,10.404,35.801,10.404c19.279,0,28.459-9.486,28.459-22.032
		c0-12.852-7.65-19.584-27.234-26.928c-26.928-9.792-39.475-24.174-39.475-41.922c0-23.868,19.584-43.452,51.104-43.452
		c14.992,0,28.15,3.978,36.107,9.18l-6.426,19.584c-5.814-3.672-16.525-8.874-30.295-8.874c-15.912,0-24.48,9.18-24.48,20.196
		c0,12.24,8.568,17.748,27.848,25.398c25.396,9.486,38.861,22.338,38.861,44.37c0,26.316-20.502,44.676-55.08,44.676
		c-16.219,0-31.213-4.284-41.615-10.404L1974.949,544.446z"/>
	<path fill="#404042" d="M2093.676,448.056c0-11.322,7.65-19.278,18.053-19.278c11.018,0,18.055,7.956,18.055,19.278
		c0,10.71-7.037,18.972-18.359,18.972C2101.02,467.028,2093.676,458.766,2093.676,448.056z M2093.676,556.074
		c0-11.322,7.65-19.278,18.053-19.278c11.018,0,18.055,7.956,18.055,19.278c0,10.71-7.037,18.972-18.359,18.972
		C2101.02,575.046,2093.676,566.784,2093.676,556.074z"/>
	<path fill="#404042" d="M2140.488,583.614l85.068-221.85h21.113l-85.68,221.85H2140.488z"/>
	<path fill="#404042" d="M2245.443,583.614l85.066-221.85h21.115l-85.68,221.85H2245.443z"/>
	<path fill="#404042" d="M2383.75,423.576l19.891,75.276c3.979,16.524,7.955,31.824,10.709,47.124h0.92
		c3.365-14.994,8.262-30.906,13.156-46.818l24.174-75.582h22.645l22.951,74.052c5.508,17.748,9.791,33.354,13.156,48.348h0.918
		c2.449-14.994,6.428-30.6,11.322-48.042l21.115-74.358h26.621l-47.736,148.104h-24.479l-22.645-70.686
		c-5.203-16.524-9.486-31.212-13.158-48.654h-0.611c-3.672,17.748-8.262,33.048-13.465,48.96l-23.867,70.38h-24.48l-44.676-148.104
		H2383.75z"/>
	<path fill="#404042" d="M2612.635,423.576l19.889,75.276c3.979,16.524,7.957,31.824,10.711,47.124h0.918
		c3.365-14.994,8.262-30.906,13.158-46.818l24.174-75.582h22.645l22.949,74.052c5.508,17.748,9.793,33.354,13.158,48.348h0.918
		c2.447-14.994,6.426-30.6,11.322-48.042l21.113-74.358h26.623l-47.736,148.104h-24.48l-22.645-70.686
		c-5.201-16.524-9.484-31.212-13.158-48.654h-0.611c-3.672,17.748-8.262,33.048-13.463,48.96l-23.869,70.38h-24.48l-44.676-148.104
		H2612.635z"/>
	<path fill="#404042" d="M2841.518,423.576l19.891,75.276c3.979,16.524,7.955,31.824,10.709,47.124h0.92
		c3.365-14.994,8.262-30.906,13.156-46.818l24.174-75.582h22.645l22.951,74.052c5.508,17.748,9.791,33.354,13.156,48.348h0.918
		c2.449-14.994,6.428-30.6,11.322-48.042l21.115-74.358h26.621l-47.736,148.104h-24.479l-22.645-70.686
		c-5.203-16.524-9.486-31.212-13.158-48.654h-0.611c-3.672,17.748-8.262,33.048-13.465,48.96l-23.867,70.38h-24.48l-44.676-148.104
		H2841.518z"/>
</g>
<g>
	<path fill="#326335" d="M642.65,534.419c8.19,5.25,19.951,9.24,32.551,9.24c18.69,0,29.611-9.87,29.611-24.151
		c0-13.02-7.561-20.791-26.671-27.931c-23.101-8.4-37.381-20.581-37.381-40.321c0-22.051,18.271-38.431,45.781-38.431
		c14.28,0,24.99,3.36,31.081,6.93l-5.04,14.911c-4.41-2.73-13.86-6.72-26.671-6.72c-19.321,0-26.671,11.55-26.671,21.21
		c0,13.23,8.61,19.741,28.141,27.301c23.94,9.24,35.911,20.791,35.911,41.582c0,21.84-15.961,40.951-49.352,40.951
		c-13.65,0-28.561-4.2-36.121-9.24L642.65,534.419z"/>
	<path fill="#326335" d="M759.41,509.218c0.42,24.991,16.17,35.281,34.861,35.281c13.229,0,21.42-2.31,28.141-5.25l3.36,13.23
		c-6.511,2.94-17.851,6.51-34.021,6.51c-31.291,0-49.981-20.791-49.981-51.452s18.061-54.602,47.671-54.602
		c33.392,0,42.002,28.981,42.002,47.671c0,3.78-0.21,6.51-0.63,8.61H759.41z M813.592,495.988c0.21-11.55-4.83-29.821-25.621-29.821
		c-18.9,0-26.881,17.01-28.351,29.821H813.592z"/>
	<path fill="#326335" d="M926.78,553.109c-4.83,2.31-15.541,5.88-29.191,5.88c-30.661,0-50.611-20.791-50.611-51.872
		c0-31.291,21.421-54.182,54.602-54.182c10.92,0,20.581,2.73,25.621,5.46l-4.2,14.07c-4.41-2.31-11.341-4.83-21.421-4.83
		c-23.311,0-35.911,17.431-35.911,38.431c0,23.521,15.12,38.011,35.281,38.011c10.5,0,17.431-2.52,22.681-4.83L926.78,553.109z"/>
	<path fill="#326335" d="M1033.459,528.749c0,10.71,0.21,19.95,0.841,27.931h-16.381l-1.05-16.59h-0.42
		c-4.62,8.19-15.541,18.9-33.602,18.9c-15.96,0-35.071-9.03-35.071-44.521v-59.432h18.48v56.072c0,19.32,6.091,32.551,22.681,32.551
		c12.391,0,21.001-8.61,24.361-17.01c1.05-2.521,1.68-5.88,1.68-9.451v-62.162h18.48V528.749z"/>
	<path fill="#326335" d="M1064.115,486.748c0-11.971-0.21-22.261-0.84-31.711h16.171l0.84,20.161h0.63
		c4.62-13.65,15.961-22.261,28.352-22.261c1.89,0,3.359,0.21,5.04,0.42v17.431c-1.891-0.42-3.78-0.42-6.301-0.42
		c-13.021,0-22.261,9.661-24.78,23.521c-0.42,2.52-0.63,5.67-0.63,8.61v54.182h-18.481V486.748z"/>
	<path fill="#326335" d="M1140.976,509.218c0.42,24.991,16.17,35.281,34.86,35.281c13.23,0,21.421-2.31,28.142-5.25l3.36,13.23
		c-6.511,2.94-17.851,6.51-34.021,6.51c-31.291,0-49.981-20.791-49.981-51.452s18.061-54.602,47.671-54.602
		c33.392,0,42.002,28.981,42.002,47.671c0,3.78-0.21,6.51-0.63,8.61H1140.976z M1195.157,495.988
		c0.21-11.55-4.83-29.821-25.621-29.821c-18.9,0-26.881,17.01-28.351,29.821H1195.157z"/>
</g>
</svg>
