
<svg width="1054px" height="457px" viewBox="0 0 1054 457" version="1.1" xmlns="http://www.w3.org/2000/svg" xmlns:xlink="http://www.w3.org/1999/xlink">
    <g id="Page-3---big-diagram" stroke="none" stroke-width="1" fill="none" fill-rule="evenodd">
        <g id="Group-2" transform="translate(0.500000, 0.000000)">
            <rect id="Background-frame" stroke="#FFFFFF" stroke-width="4" x="2" y="2" width="1049" height="453" rx="8"></rect>
            <rect id="Rectangle" fill="#74D3E0" transform="translate(233.500000, 205.676768) rotate(90.000000) translate(-233.500000, -205.676768) " x="209.5" y="103.676768" width="48" height="204" rx="24"></rect>
            <rect id="Rectangle" fill="#74D3E0" transform="translate(436.500000, 205.676768) rotate(90.000000) translate(-436.500000, -205.676768) " x="412.5" y="164.676768" width="48" height="82" rx="24"></rect>
            <circle id="Oval" fill="#74D3E0" cx="365.5" cy="205.676768" r="24"></circle>
            <rect id="Rectangle" fill="#74D3E0" transform="translate(206.500000, 273.000000) rotate(90.000000) translate(-206.500000, -273.000000) " x="182.5" y="198" width="48" height="150" rx="24"></rect>
            <rect id="Rectangle" fill="#74D3E0" transform="translate(437.000000, 273.000000) rotate(90.000000) translate(-437.000000, -273.000000) " x="413" y="232.5" width="48" height="81" rx="24"></rect>
            <circle id="Oval" fill="#74D3E0" cx="365.5" cy="273" r="24"></circle>
            <circle id="Oval" fill="#74D3E0" cx="311.5" cy="273" r="24"></circle>
            <rect id="Rectangle" fill="#74D3E0" transform="translate(220.000000, 340.000000) rotate(90.000000) translate(-220.000000, -340.000000) " x="196" y="251.5" width="48" height="177" rx="24"></rect>
            <rect id="Rectangle" fill="#74D3E0" transform="translate(423.000000, 340.000000) rotate(90.000000) translate(-423.000000, -340.000000) " x="399" y="285.5" width="48" height="109" rx="24"></rect>
            <circle id="Oval" fill="#74D3E0" cx="338.5" cy="340" r="24"></circle>
            <rect id="Rectangle" fill="#74D3E0" transform="translate(206.500000, 139.000000) rotate(90.000000) translate(-206.500000, -139.000000) " x="182.5" y="64" width="48" height="150" rx="24"></rect>
            <rect id="Rectangle" fill="#74D3E0" transform="translate(409.500000, 139.000000) rotate(90.000000) translate(-409.500000, -139.000000) " x="385.5" y="71" width="48" height="136" rx="24"></rect>
            <circle id="Oval" fill="#74D3E0" cx="311.5" cy="139" r="24"></circle>
            <rect id="Rectangle" stroke="#12B5CB" stroke-width="4" fill="#DCF4F8" x="555.5" y="33" width="247" height="128" rx="8"></rect>
            <rect id="Rectangle" stroke="#12B5CB" stroke-width="4" fill="#DCF4F8" x="555.5" y="33" width="45" height="128" rx="8"></rect>
            <rect id="Rectangle" stroke="#12B5CB" stroke-width="4" fill="#DCF4F8" x="555.5" y="33" width="247" height="18" rx="8"></rect>
            <rect id="Rectangle" stroke="#12B5CB" stroke-width="4" fill="#DCF4F8" x="555" y="318" width="247" height="128" rx="8"></rect>
            <rect id="Rectangle" stroke="#12B5CB" stroke-width="4" fill="#DCF4F8" x="690" y="318" width="112" height="128" rx="8"></rect>
            <circle id="Oval" fill="#12B5CB" cx="626" cy="382" r="24"></circle>
            <rect id="Rectangle" fill="#74D3E0" transform="translate(731.174699, 360.491461) rotate(90.000000) translate(-731.174699, -360.491461) " x="724.427711" y="331.816762" width="13.4939759" height="57.3493976" rx="6.74698795"></rect>
            <rect id="Rectangle" fill="#74D3E0" transform="translate(723.584337, 379.417671) rotate(90.000000) translate(-723.584337, -379.417671) " x="716.837349" y="358.333333" width="13.4939759" height="42.1686747" rx="6.74698795"></rect>
            <rect id="Rectangle" fill="#74D3E0" transform="translate(727.379518, 398.253012) rotate(90.000000) translate(-727.379518, -398.253012) " x="720.63253" y="373.373494" width="13.4939759" height="49.7590361" rx="6.74698795"></rect>
            <rect id="Rectangle" fill="#74D3E0" transform="translate(723.584337, 341.746988) rotate(90.000000) translate(-723.584337, -341.746988) " x="716.837349" y="320.662651" width="13.4939759" height="42.1686747" rx="6.74698795"></rect>
            <g id="Group" transform="translate(609.500000, 89.000000)" fill="#74D3E0">
                <rect id="Rectangle" transform="translate(40.625000, 13.000000) rotate(90.000000) translate(-40.625000, -13.000000) " x="27.625" y="-27.625" width="26" height="81.25" rx="13"></rect>
                <rect id="Rectangle" transform="translate(150.583333, 13.000000) rotate(90.000000) translate(-150.583333, -13.000000) " x="137.583333" y="-23.8333333" width="26" height="73.6666667" rx="13"></rect>
                <circle id="Oval" cx="97.5" cy="13" r="13"></circle>
            </g>
            <path d="M595.948608,408.053741 C459.948608,330.748199 356.846191,378.701273 356.846191,378.701273" id="Line-2" stroke="#979797" stroke-width="4" stroke-linecap="square" transform="translate(476.397400, 386.026871) scale(-1, -1) translate(-476.397400, -386.026871) "></path>
            <path d="M362.5,333.563232 C454.250305,309.187744 534.250305,318.248996 602.5,360.746988" id="Line" stroke="#979797" stroke-width="4" stroke-linecap="square"></path>
            <polygon id="Triangle" fill="#979797" transform="translate(595.579068, 357.778276) rotate(169.000000) translate(-595.579068, -357.778276) " points="582.023135 343.278276 609.135 356.523595 590.359302 372.278276"></polygon>
            <path d="M587.235045,116.152281 C527.655601,144.781037 456.816455,103.002511 456.816455,103.002511" id="Line-2" stroke="#979797" stroke-width="5" stroke-linecap="square" transform="translate(522.025750, 114.590644) scale(-1, -1) rotate(-23.000000) translate(-522.025750, -114.590644) "></path>
            <polygon id="Triangle" fill="#979797" transform="translate(586.579068, 99.778276) rotate(127.000000) translate(-586.579068, -99.778276) " points="573.023135 85.2782761 600.135 98.5235954 581.359302 114.278276"></polygon>
            <polygon id="Triangle" fill="#979797" transform="translate(362.579068, 365.778276) rotate(349.000000) translate(-362.579068, -365.778276) " points="349.023135 351.278276 376.135 364.523595 357.359302 380.278276"></polygon>
            <text id="Evaluate-pipelines" font-family="Roboto-Light, Roboto" font-size="26" font-weight="300" fill="#333333">
                <tspan x="509.5" y="199">evaluate solutions</tspan>
            </text>
            <text id="Studio" font-family="Roboto-Light, Roboto" font-size="36" font-weight="300" fill="#333333">
                <tspan x="824.5" y="114">Studio</tspan>
            </text>
            <text id="Tasks" font-family="Roboto-Light, Roboto" font-size="36" font-weight="300" fill="#333333">
                <tspan x="131.5" y="78">Tasks</tspan>
            </text>
            <text id="Model-Maker" font-family="Roboto-Light, Roboto" font-size="36" font-weight="300" fill="#333333">
                <tspan x="824.5" y="373">Model</tspan>
                <tspan x="824.5" y="415">Maker</tspan>
            </text>
            <text id="Customize-models" font-family="Roboto-Light, Roboto" font-size="26" font-weight="300" fill="#333333">
                <tspan x="509.5" y="302">customize models</tspan>
            </text>
        </g>
    </g>
</svg>